<?xml version="1.0" encoding="UTF-8" standalone="no"?>
<!-- Created with Inkscape (http://www.inkscape.org/) -->

<svg
   xmlns:dc="http://purl.org/dc/elements/1.1/"
   xmlns:cc="http://creativecommons.org/ns#"
   xmlns:rdf="http://www.w3.org/1999/02/22-rdf-syntax-ns#"
   xmlns:svg="http://www.w3.org/2000/svg"
   xmlns="http://www.w3.org/2000/svg"
   xmlns:xlink="http://www.w3.org/1999/xlink"
   xmlns:sodipodi="http://sodipodi.sourceforge.net/DTD/sodipodi-0.dtd"
   xmlns:inkscape="http://www.inkscape.org/namespaces/inkscape"
   width="64px"
   height="64px"
   id="svg2816"
   version="1.1"
   inkscape:version="0.48.4 r9939"
   sodipodi:docname="fem-material.svg">
  <defs
     id="defs2818">
    <linearGradient
       inkscape:collect="always"
       id="linearGradient4044">
      <stop
         style="stop-color:#000000;stop-opacity:1;"
         offset="0"
         id="stop4046" />
      <stop
         style="stop-color:#000000;stop-opacity:0;"
         offset="1"
         id="stop4048" />
    </linearGradient>
    <linearGradient
       id="linearGradient3681">
      <stop
         id="stop3697"
         offset="0"
         style="stop-color:#fff110;stop-opacity:1;" />
      <stop
         style="stop-color:#cf7008;stop-opacity:1;"
         offset="1"
         id="stop3685" />
    </linearGradient>
    <inkscape:perspective
       sodipodi:type="inkscape:persp3d"
       inkscape:vp_x="0 : 32 : 1"
       inkscape:vp_y="0 : 1000 : 0"
       inkscape:vp_z="64 : 32 : 1"
       inkscape:persp3d-origin="32 : 21.333333 : 1"
       id="perspective2824" />
    <inkscape:perspective
       id="perspective3622"
       inkscape:persp3d-origin="0.5 : 0.33333333 : 1"
       inkscape:vp_z="1 : 0.5 : 1"
       inkscape:vp_y="0 : 1000 : 0"
       inkscape:vp_x="0 : 0.5 : 1"
       sodipodi:type="inkscape:persp3d" />
    <inkscape:perspective
       id="perspective3622-9"
       inkscape:persp3d-origin="0.5 : 0.33333333 : 1"
       inkscape:vp_z="1 : 0.5 : 1"
       inkscape:vp_y="0 : 1000 : 0"
       inkscape:vp_x="0 : 0.5 : 1"
       sodipodi:type="inkscape:persp3d" />
    <inkscape:perspective
       id="perspective3653"
       inkscape:persp3d-origin="0.5 : 0.33333333 : 1"
       inkscape:vp_z="1 : 0.5 : 1"
       inkscape:vp_y="0 : 1000 : 0"
       inkscape:vp_x="0 : 0.5 : 1"
       sodipodi:type="inkscape:persp3d" />
    <inkscape:perspective
       id="perspective3675"
       inkscape:persp3d-origin="0.5 : 0.33333333 : 1"
       inkscape:vp_z="1 : 0.5 : 1"
       inkscape:vp_y="0 : 1000 : 0"
       inkscape:vp_x="0 : 0.5 : 1"
       sodipodi:type="inkscape:persp3d" />
    <inkscape:perspective
       id="perspective3697"
       inkscape:persp3d-origin="0.5 : 0.33333333 : 1"
       inkscape:vp_z="1 : 0.5 : 1"
       inkscape:vp_y="0 : 1000 : 0"
       inkscape:vp_x="0 : 0.5 : 1"
       sodipodi:type="inkscape:persp3d" />
    <inkscape:perspective
       id="perspective3720"
       inkscape:persp3d-origin="0.5 : 0.33333333 : 1"
       inkscape:vp_z="1 : 0.5 : 1"
       inkscape:vp_y="0 : 1000 : 0"
       inkscape:vp_x="0 : 0.5 : 1"
       sodipodi:type="inkscape:persp3d" />
    <inkscape:perspective
       id="perspective3742"
       inkscape:persp3d-origin="0.5 : 0.33333333 : 1"
       inkscape:vp_z="1 : 0.5 : 1"
       inkscape:vp_y="0 : 1000 : 0"
       inkscape:vp_x="0 : 0.5 : 1"
       sodipodi:type="inkscape:persp3d" />
    <inkscape:perspective
       id="perspective3764"
       inkscape:persp3d-origin="0.5 : 0.33333333 : 1"
       inkscape:vp_z="1 : 0.5 : 1"
       inkscape:vp_y="0 : 1000 : 0"
       inkscape:vp_x="0 : 0.5 : 1"
       sodipodi:type="inkscape:persp3d" />
    <inkscape:perspective
       id="perspective3785"
       inkscape:persp3d-origin="0.5 : 0.33333333 : 1"
       inkscape:vp_z="1 : 0.5 : 1"
       inkscape:vp_y="0 : 1000 : 0"
       inkscape:vp_x="0 : 0.5 : 1"
       sodipodi:type="inkscape:persp3d" />
    <inkscape:perspective
       id="perspective3806"
       inkscape:persp3d-origin="0.5 : 0.33333333 : 1"
       inkscape:vp_z="1 : 0.5 : 1"
       inkscape:vp_y="0 : 1000 : 0"
       inkscape:vp_x="0 : 0.5 : 1"
       sodipodi:type="inkscape:persp3d" />
    <inkscape:perspective
       id="perspective3806-3"
       inkscape:persp3d-origin="0.5 : 0.33333333 : 1"
       inkscape:vp_z="1 : 0.5 : 1"
       inkscape:vp_y="0 : 1000 : 0"
       inkscape:vp_x="0 : 0.5 : 1"
       sodipodi:type="inkscape:persp3d" />
    <inkscape:perspective
       id="perspective3835"
       inkscape:persp3d-origin="0.5 : 0.33333333 : 1"
       inkscape:vp_z="1 : 0.5 : 1"
       inkscape:vp_y="0 : 1000 : 0"
       inkscape:vp_x="0 : 0.5 : 1"
       sodipodi:type="inkscape:persp3d" />
    <inkscape:perspective
       id="perspective3614"
       inkscape:persp3d-origin="0.5 : 0.33333333 : 1"
       inkscape:vp_z="1 : 0.5 : 1"
       inkscape:vp_y="0 : 1000 : 0"
       inkscape:vp_x="0 : 0.5 : 1"
       sodipodi:type="inkscape:persp3d" />
    <inkscape:perspective
       id="perspective3614-8"
       inkscape:persp3d-origin="0.5 : 0.33333333 : 1"
       inkscape:vp_z="1 : 0.5 : 1"
       inkscape:vp_y="0 : 1000 : 0"
       inkscape:vp_x="0 : 0.5 : 1"
       sodipodi:type="inkscape:persp3d" />
    <inkscape:perspective
       id="perspective3643"
       inkscape:persp3d-origin="0.5 : 0.33333333 : 1"
       inkscape:vp_z="1 : 0.5 : 1"
       inkscape:vp_y="0 : 1000 : 0"
       inkscape:vp_x="0 : 0.5 : 1"
       sodipodi:type="inkscape:persp3d" />
    <inkscape:perspective
       id="perspective3643-3"
       inkscape:persp3d-origin="0.5 : 0.33333333 : 1"
       inkscape:vp_z="1 : 0.5 : 1"
       inkscape:vp_y="0 : 1000 : 0"
       inkscape:vp_x="0 : 0.5 : 1"
       sodipodi:type="inkscape:persp3d" />
    <inkscape:perspective
       id="perspective3672"
       inkscape:persp3d-origin="0.5 : 0.33333333 : 1"
       inkscape:vp_z="1 : 0.5 : 1"
       inkscape:vp_y="0 : 1000 : 0"
       inkscape:vp_x="0 : 0.5 : 1"
       sodipodi:type="inkscape:persp3d" />
    <inkscape:perspective
       id="perspective3672-5"
       inkscape:persp3d-origin="0.5 : 0.33333333 : 1"
       inkscape:vp_z="1 : 0.5 : 1"
       inkscape:vp_y="0 : 1000 : 0"
       inkscape:vp_x="0 : 0.5 : 1"
       sodipodi:type="inkscape:persp3d" />
    <inkscape:perspective
       id="perspective3701"
       inkscape:persp3d-origin="0.5 : 0.33333333 : 1"
       inkscape:vp_z="1 : 0.5 : 1"
       inkscape:vp_y="0 : 1000 : 0"
       inkscape:vp_x="0 : 0.5 : 1"
       sodipodi:type="inkscape:persp3d" />
    <inkscape:perspective
       id="perspective3701-8"
       inkscape:persp3d-origin="0.5 : 0.33333333 : 1"
       inkscape:vp_z="1 : 0.5 : 1"
       inkscape:vp_y="0 : 1000 : 0"
       inkscape:vp_x="0 : 0.5 : 1"
       sodipodi:type="inkscape:persp3d" />
    <inkscape:perspective
       id="perspective3746"
       inkscape:persp3d-origin="0.5 : 0.33333333 : 1"
       inkscape:vp_z="1 : 0.5 : 1"
       inkscape:vp_y="0 : 1000 : 0"
       inkscape:vp_x="0 : 0.5 : 1"
       sodipodi:type="inkscape:persp3d" />
    <pattern
       patternTransform="matrix(0.67643728,-0.81829155,2.4578314,1.8844554,-26.450606,18.294947)"
       id="pattern5231"
       xlink:href="#Strips1_1-4"
       inkscape:collect="always" />
    <inkscape:perspective
       id="perspective5224"
       inkscape:persp3d-origin="0.5 : 0.33333333 : 1"
       inkscape:vp_z="1 : 0.5 : 1"
       inkscape:vp_y="0 : 1000 : 0"
       inkscape:vp_x="0 : 0.5 : 1"
       sodipodi:type="inkscape:persp3d" />
    <pattern
       inkscape:stockid="Stripes 1:1"
       id="Strips1_1-4"
       patternTransform="matrix(0.66772843,-1.0037085,2.4261878,2.3114548,3.4760987,3.534923)"
       height="1"
       width="2"
       patternUnits="userSpaceOnUse"
       inkscape:collect="always">
      <rect
         id="rect4483-4"
         height="2"
         width="1"
         y="-0.5"
         x="0"
         style="fill:black;stroke:none" />
    </pattern>
    <inkscape:perspective
       id="perspective5224-9"
       inkscape:persp3d-origin="0.5 : 0.33333333 : 1"
       inkscape:vp_z="1 : 0.5 : 1"
       inkscape:vp_y="0 : 1000 : 0"
       inkscape:vp_x="0 : 0.5 : 1"
       sodipodi:type="inkscape:persp3d" />
    <pattern
       patternTransform="matrix(0.66772843,-1.0037085,2.4261878,2.3114548,39.618381,8.9692804)"
       id="pattern5231-4"
       xlink:href="#Strips1_1-6"
       inkscape:collect="always" />
    <inkscape:perspective
       id="perspective5224-3"
       inkscape:persp3d-origin="0.5 : 0.33333333 : 1"
       inkscape:vp_z="1 : 0.5 : 1"
       inkscape:vp_y="0 : 1000 : 0"
       inkscape:vp_x="0 : 0.5 : 1"
       sodipodi:type="inkscape:persp3d" />
    <pattern
       inkscape:stockid="Stripes 1:1"
       id="Strips1_1-6"
       patternTransform="matrix(0.66772843,-1.0037085,2.4261878,2.3114548,3.4760987,3.534923)"
       height="1"
       width="2"
       patternUnits="userSpaceOnUse"
       inkscape:collect="always">
      <rect
         id="rect4483-0"
         height="2"
         width="1"
         y="-0.5"
         x="0"
         style="fill:black;stroke:none" />
    </pattern>
    <pattern
       patternTransform="matrix(0.66513382,-1.0631299,2.4167603,2.4482973,-49.762569,2.9546807)"
       id="pattern5296"
       xlink:href="#pattern5231-3"
       inkscape:collect="always" />
    <inkscape:perspective
       id="perspective5288"
       inkscape:persp3d-origin="0.5 : 0.33333333 : 1"
       inkscape:vp_z="1 : 0.5 : 1"
       inkscape:vp_y="0 : 1000 : 0"
       inkscape:vp_x="0 : 0.5 : 1"
       sodipodi:type="inkscape:persp3d" />
    <pattern
       patternTransform="matrix(0.66772843,-1.0037085,2.4261878,2.3114548,-26.336284,10.887197)"
       id="pattern5231-3"
       xlink:href="#Strips1_1-4-3"
       inkscape:collect="always" />
    <pattern
       inkscape:stockid="Stripes 1:1"
       id="Strips1_1-4-3"
       patternTransform="matrix(0.66772843,-1.0037085,2.4261878,2.3114548,3.4760987,3.534923)"
       height="1"
       width="2"
       patternUnits="userSpaceOnUse"
       inkscape:collect="always">
      <rect
         id="rect4483-4-6"
         height="2"
         width="1"
         y="-0.5"
         x="0"
         style="fill:black;stroke:none" />
    </pattern>
    <pattern
       patternTransform="matrix(0.42844886,-0.62155849,1.5567667,1.431396,27.948414,13.306456)"
       id="pattern5330"
       xlink:href="#Strips1_1-9"
       inkscape:collect="always" />
    <inkscape:perspective
       id="perspective5323"
       inkscape:persp3d-origin="0.5 : 0.33333333 : 1"
       inkscape:vp_z="1 : 0.5 : 1"
       inkscape:vp_y="0 : 1000 : 0"
       inkscape:vp_x="0 : 0.5 : 1"
       sodipodi:type="inkscape:persp3d" />
    <pattern
       inkscape:stockid="Stripes 1:1"
       id="Strips1_1-9"
       patternTransform="matrix(0.66772843,-1.0037085,2.4261878,2.3114548,3.4760987,3.534923)"
       height="1"
       width="2"
       patternUnits="userSpaceOnUse"
       inkscape:collect="always">
      <rect
         id="rect4483-3"
         height="2"
         width="1"
         y="-0.5"
         x="0"
         style="fill:black;stroke:none" />
    </pattern>
    <inkscape:perspective
       id="perspective5361"
       inkscape:persp3d-origin="0.5 : 0.33333333 : 1"
       inkscape:vp_z="1 : 0.5 : 1"
       inkscape:vp_y="0 : 1000 : 0"
       inkscape:vp_x="0 : 0.5 : 1"
       sodipodi:type="inkscape:persp3d" />
    <inkscape:perspective
       id="perspective5383"
       inkscape:persp3d-origin="0.5 : 0.33333333 : 1"
       inkscape:vp_z="1 : 0.5 : 1"
       inkscape:vp_y="0 : 1000 : 0"
       inkscape:vp_x="0 : 0.5 : 1"
       sodipodi:type="inkscape:persp3d" />
    <inkscape:perspective
       id="perspective5411"
       inkscape:persp3d-origin="0.5 : 0.33333333 : 1"
       inkscape:vp_z="1 : 0.5 : 1"
       inkscape:vp_y="0 : 1000 : 0"
       inkscape:vp_x="0 : 0.5 : 1"
       sodipodi:type="inkscape:persp3d" />
    <linearGradient
       inkscape:collect="always"
       xlink:href="#linearGradient3681"
       id="linearGradient3687"
       x1="37.89756"
       y1="41.087898"
       x2="4.0605712"
       y2="40.168594"
       gradientUnits="userSpaceOnUse" />
    <linearGradient
       inkscape:collect="always"
       xlink:href="#linearGradient3681"
       id="linearGradient3695"
       x1="31.777767"
       y1="40.24213"
       x2="68.442062"
       y2="54.041203"
       gradientUnits="userSpaceOnUse"
       gradientTransform="matrix(0.25023482,-0.66040068,0.68751357,0.24036653,-8.7488565,43.149938)" />
    <radialGradient
       inkscape:collect="always"
       xlink:href="#linearGradient12512"
       id="radialGradient278"
       gradientUnits="userSpaceOnUse"
       cx="55"
       cy="125"
       fx="55"
       fy="125"
       r="14.375" />
    <linearGradient
       id="linearGradient12512">
      <stop
         style="stop-color:#ffffff;stop-opacity:1.0000000;"
         offset="0.0000000"
         id="stop12513" />
      <stop
         style="stop-color:#fff520;stop-opacity:0.89108908;"
         offset="0.50000000"
         id="stop12517" />
      <stop
         style="stop-color:#fff300;stop-opacity:0.0000000;"
         offset="1.0000000"
         id="stop12514" />
    </linearGradient>
    <radialGradient
       r="14.375"
       fy="125"
       fx="55"
       cy="125"
       cx="55"
       gradientUnits="userSpaceOnUse"
       id="radialGradient4017"
       xlink:href="#linearGradient12512"
       inkscape:collect="always" />
    <linearGradient
       inkscape:collect="always"
       xlink:href="#linearGradient4044"
       id="linearGradient4060"
       x1="15.78776"
       y1="50.394047"
       x2="27.641447"
       y2="39.95837"
       gradientUnits="userSpaceOnUse" />
    <radialGradient
       inkscape:collect="always"
       xlink:href="#linearGradient12512-2"
       id="radialGradient278-5"
       gradientUnits="userSpaceOnUse"
       cx="55"
       cy="125"
       fx="55"
       fy="125"
       r="14.375" />
    <linearGradient
       id="linearGradient12512-2">
      <stop
         style="stop-color:#ffffff;stop-opacity:1.0000000;"
         offset="0.0000000"
         id="stop12513-3" />
      <stop
         style="stop-color:#fff520;stop-opacity:0.89108908;"
         offset="0.50000000"
         id="stop12517-1" />
      <stop
         style="stop-color:#fff300;stop-opacity:0.0000000;"
         offset="1.0000000"
         id="stop12514-6" />
    </linearGradient>
    <radialGradient
       r="14.375"
       fy="125"
       fx="55"
       cy="125"
       cx="55"
       gradientUnits="userSpaceOnUse"
       id="radialGradient4078"
       xlink:href="#linearGradient12512-2"
       inkscape:collect="always" />
  </defs>
  <sodipodi:namedview
     id="base"
     pagecolor="#ffffff"
     bordercolor="#666666"
     borderopacity="1.0"
     inkscape:pageopacity="0.0"
     inkscape:pageshadow="2"
     inkscape:zoom="3.8890872"
     inkscape:cx="-9.4525225"
     inkscape:cy="14.197821"
     inkscape:current-layer="layer1"
     showgrid="true"
     inkscape:document-units="px"
     inkscape:grid-bbox="true"
     inkscape:snap-bbox="true"
     inkscape:bbox-paths="true"
     inkscape:bbox-nodes="true"
     inkscape:snap-bbox-edge-midpoints="true"
     inkscape:snap-bbox-midpoints="true"
     inkscape:object-paths="true"
     inkscape:object-nodes="true"
     inkscape:window-width="1280"
     inkscape:window-height="716"
     inkscape:window-x="75"
     inkscape:window-y="24"
     inkscape:window-maximized="0" />
  <metadata
     id="metadata2821">
    <rdf:RDF>
      <cc:Work
         rdf:about="">
        <dc:format>image/svg+xml</dc:format>
        <dc:type
           rdf:resource="http://purl.org/dc/dcmitype/StillImage" />
        <dc:title />
      </cc:Work>
    </rdf:RDF>
  </metadata>
  <g
     id="layer1"
     inkscape:label="Layer 1"
     inkscape:groupmode="layer">
    <text
       xml:space="preserve"
       style="font-size:54.02991486px;font-style:normal;font-weight:normal;line-height:125%;letter-spacing:0px;word-spacing:0px;fill:#000000;fill-opacity:1;stroke:none;font-family:Sans"
       x="6.7132359"
       y="49.482182"
       id="text3051"
       sodipodi:linespacing="125%"
       transform="scale(1.0756782,0.9296461)"><tspan
         sodipodi:role="line"
         id="tspan3053"
         x="6.7132359"
         y="49.482182">M</tspan></text>
    <path
       style="fill:#ff0000;fill-opacity:1;fill-rule:nonzero;stroke:none"
       id="path3055"
       d="m 6.3916844,27.249275 c 2.0777106,0.876982 4.1941716,1.664102 6.3245916,2.404288 1.994739,0.649985 3.988604,1.298746 5.912434,2.139093 1.033324,0.412168 2.011564,0.943258 3.005173,1.441064 0.817489,0.402857 1.504373,1.006586 2.24594,1.525283 0.762042,0.469002 1.465296,1.022141 2.190637,1.544282 0.61897,0.471526 1.243471,0.932483 1.80368,1.473756 0.61813,0.561138 1.079153,1.25042 1.570028,1.917637 0.489494,0.641945 0.830965,1.375439 1.15896,2.10832 0.238762,0.703514 0.626208,1.311034 1.094249,1.880418 0.463439,0.616949 0.969589,1.198876 1.492722,1.765375 0.470951,0.608762 1.115799,0.982541 1.751092,1.38998 0.61177,0.459183 1.287003,0.811165 1.986434,1.114568 0.735967,0.320784 1.449953,0.672539 2.21462,0.931658 0.818104,0.297847 1.65158,0.549877 2.48168,0.812474 0.823374,0.287883 1.632853,0.617008 2.474662,0.847699 0.745047,0.196074 1.512847,0.238993 2.278933,0.259454 0.881221,0.02031 1.762718,0.0131 2.644037,0.0053 0.823519,-0.0088 1.646952,-0.0023 2.470452,0.0043 1.132624,-0.07597 2.262437,-0.178636 3.39734,-0.212396 0.969857,-0.03363 1.940122,-0.0467 2.910456,-0.05532 0,0 -3.053418,2.220282 -3.053418,2.220282 l 0,0 c -0.95548,-0.001 -1.911229,0.0047 -2.866152,0.03995 -1.140402,0.05828 -2.278237,0.154605 -3.418686,0.209501 -0.830701,0.0074 -1.661348,0.0156 -2.492095,0.01244 -0.885234,-0.003 -1.770594,8.15e-4 -2.655701,-0.01542 -0.78377,-0.03703 -1.564291,-0.111791 -2.318451,-0.344277 C 40.156969,52.41428 39.33692,52.10342 38.50974,51.815018 37.682238,51.543722 36.843639,51.3075 36.032488,50.988584 35.261353,50.711848 34.521779,50.373565 33.772086,50.045433 33.073368,49.710157 32.398131,49.334401 31.769699,48.878185 31.105298,48.455424 30.452757,48.040365 29.96165,47.408272 29.436666,46.833096 28.932223,46.240406 28.453754,45.625759 27.971113,45.027056 27.569255,44.385163 27.306521,43.65746 c -0.30322,-0.712356 -0.630837,-1.420909 -1.098814,-2.04264 -0.489358,-0.643591 -0.935395,-1.322827 -1.553563,-1.85608 -0.54953,-0.526749 -1.164825,-0.971302 -1.766587,-1.436001 -0.718074,-0.528952 -1.425285,-1.072607 -2.182834,-1.545353 -0.715342,-0.522453 -1.413422,-1.077801 -2.205054,-1.483691 -0.977898,-0.500224 -1.952025,-1.008853 -2.958397,-1.45019 -1.87157,-0.854055 -3.802805,-1.555903 -5.7531199,-2.20894 -2.1797995,-0.760783 -4.3445876,-1.571734 -6.5540799,-2.242881 0,0 3.1576122,-2.142409 3.1576122,-2.142409 z"
       inkscape:connector-curvature="0" />
    <path
       style="fill:#ff0000"
       id="path3057"
       d="m 5.4052751,32.989268 c 1.4691761,0.888508 3.1516107,1.302466 4.7461929,1.893079 1.209615,0.467246 2.390047,0.994441 3.534626,1.607428 0.769611,0.443252 1.494725,0.961669 2.185104,1.522575 0.530181,0.412154 1.105875,0.753242 1.637066,1.163812 0.465472,0.457342 1.026876,0.72332 1.607938,0.985534 0.649896,0.330184 1.246662,0.755747 1.81772,1.209553 0.577595,0.47509 1.109119,1.003785 1.63823,1.532915 0.549871,0.549998 1.087067,1.112755 1.631717,1.668042 0.590845,0.613373 1.208136,1.20165 1.775154,1.838043 0.45128,0.588304 0.846736,1.217417 1.275366,1.822353 0.51434,0.670888 1.075321,1.301355 1.583063,1.977968 0.511479,0.679991 1.13593,1.243282 1.776748,1.791036 0.63963,0.533061 1.277216,1.070422 1.948642,1.562093 0.897727,0.542655 1.867749,0.968454 2.827225,1.38846 0.828298,0.345688 1.704156,0.502598 2.56747,0.716905 0.807084,0.161961 1.580739,0.43842 2.388403,0.603613 0.860619,0.11209 1.714844,0.265156 2.577776,0.360662 0.724124,0.084 1.437231,0.225479 2.16509,0.286522 0.775908,0.139393 1.558623,0.228743 2.34469,0.278405 0.706727,0.01118 1.369605,0.280067 2.061075,0.407517 0.736356,0.07253 1.461458,0.220203 2.19554,0.312028 0,0 -3.041618,2.18292 -3.041618,2.18292 l 0,0 c -0.734461,-0.110809 -1.467168,-0.232346 -2.202967,-0.333277 -0.67588,-0.142878 -1.337947,-0.36972 -2.035367,-0.370261 -0.785622,-0.06536 -1.56386,-0.18828 -2.345818,-0.286772 -0.726913,-0.07488 -1.442676,-0.215965 -2.168789,-0.297042 -0.864505,-0.116719 -1.727285,-0.250705 -2.58754,-0.39524 C 36.502115,58.233063 35.711191,57.987661 34.90206,57.816012 34.024231,57.608199 33.154501,57.37889 32.319186,57.026318 31.348569,56.575173 30.345149,56.164645 29.44763,55.575144 28.765688,55.07738 28.102308,54.551321 27.460531,54.001301 26.808583,53.430264 26.193136,52.822407 25.659417,52.133118 25.141871,51.457472 24.571057,50.828591 24.053021,50.154075 23.634905,49.558567 23.238597,48.947774 22.8055,48.36316 22.247698,47.726712 21.626095,47.152591 21.043334,46.540097 20.498636,45.985244 19.948701,45.435784 19.403377,44.881564 18.884198,44.36329 18.362616,43.845019 17.791458,43.385213 17.234473,42.954214 16.650159,42.555632 16.012223,42.257691 15.409693,41.984156 14.854238,41.650394 14.358677,41.20179 13.820128,40.80075 13.246526,40.450281 12.729876,40.018489 12.057263,39.474686 11.350604,38.973086 10.602286,38.542091 9.4859917,37.941791 8.3422696,37.401016 7.1680292,36.927073 5.5417141,36.321331 3.8633452,35.852604 2.2971093,35.088429 c 0,0 3.1081658,-2.099161 3.1081658,-2.099161 z"
       inkscape:connector-curvature="0" />
    <path
       style="fill:#ff0000"
       id="path3059"
       d="m 9.8765413,22.182248 c 2.0605957,0.796696 4.1752827,1.431643 6.2479577,2.194167 1.415469,0.478312 2.799773,1.048704 4.220159,1.511876 0.730868,0.337193 1.450503,0.699126 2.207279,0.97593 0.756215,0.260442 1.374113,0.741259 1.962257,1.266584 0.81804,0.681212 1.663338,1.330221 2.508319,1.977935 0.769533,0.448977 1.487304,0.975037 2.226729,1.468998 0.540314,0.38976 1.102665,0.74519 1.626787,1.157191 0.672181,0.499896 1.396023,0.921636 2.075682,1.411599 0.599634,0.444706 1.205807,0.875735 1.773556,1.361633 0.601559,0.555853 1.180879,1.132008 1.801551,1.66707 0.624028,0.570753 1.274148,1.102073 1.958091,1.598631 0.692091,0.494204 1.321583,1.06521 1.98602,1.5944 0.602066,0.391068 1.169413,0.827078 1.710169,1.298424 0.512485,0.444036 1.039421,0.875227 1.574036,1.293121 0.642607,0.522091 1.40519,0.857176 2.098229,1.305218 0.526793,0.322409 1.104789,0.568133 1.697909,0.739764 0.66484,0.140564 1.333146,0.248947 2.009691,0.317344 0.766558,-0.01611 1.478526,0.25448 2.214253,0.42731 0.723014,0.132333 1.459059,0.154359 2.192009,0.167385 0.833262,0.01028 1.666623,0.01243 2.499936,0.0095 0.81226,-0.04838 1.610472,0.02977 2.414789,0.127003 0.311518,0.05036 0.611895,0.06676 0.924672,0.03715 0,0 -3.065013,2.237408 -3.065013,2.237408 l 0,0 c -0.317073,-0.01394 -0.631573,-0.04157 -0.945726,-0.089 -0.788682,-0.09658 -1.577475,-0.124357 -2.372213,-0.100666 -0.840801,-4.82e-4 -1.681744,0.01056 -2.522435,-0.0067 -0.751456,-0.028 -1.50594,-0.06697 -2.242227,-0.232132 C 47.943392,47.711454 47.235501,47.515176 46.488743,47.50345 45.79089,47.421294 45.086744,47.336012 44.410142,47.140403 43.805247,46.925818 43.213537,46.666366 42.680357,46.305006 41.974426,45.857793 41.20865,45.50309 40.556885,44.974491 40.015764,44.554364 39.482557,44.121607 38.970198,43.666859 38.429222,43.204604 37.855818,42.787553 37.278043,42.372802 36.623588,41.842085 35.99275,41.281555 35.307253,40.79015 34.616089,40.28615 33.960794,39.744948 33.331205,39.165296 32.712639,38.62789 32.13081,38.052656 31.516003,37.511095 30.95372,37.038263 30.357554,36.611144 29.773384,36.166171 29.085848,35.675085 28.352471,35.255609 27.671675,34.75533 27.147222,34.357703 26.594242,34.000112 26.064197,33.609986 25.338064,33.093312 24.604021,32.591029 23.856822,32.105029 23.009335,31.447248 22.153736,30.799099 21.323719,30.119404 20.743723,29.641428 20.136219,29.211262 19.41465,28.971825 18.673667,28.672388 17.964134,28.305645 17.228507,27.994443 15.859073,27.472379 14.512123,26.891291 13.134501,26.389732 11.03694,25.596349 8.88861,24.943316 6.7421601,24.29655 c 0,0 3.1343812,-2.114302 3.1343812,-2.114302 z"
       inkscape:connector-curvature="0" />
    <path
       style="fill:#ff0000"
       id="path3061"
       d="m 4.6057746,38.874067 c 0.6860109,0.336012 1.3544484,0.701696 2.0531055,1.012619 0.6587602,0.414983 1.3628224,0.750664 2.0281868,1.153436 0.6505289,0.344997 1.2041548,0.835746 1.8201601,1.235763 0.775008,0.538962 1.521217,1.11575 2.271149,1.688301 0.681509,0.552993 1.411993,1.03957 2.099904,1.583975 0.616207,0.473408 1.139989,1.03816 1.613642,1.650737 0.430737,0.658021 0.876575,1.3054 1.332997,1.945837 0.485897,0.675081 1.008494,1.323604 1.466137,2.018475 0.383388,0.624047 0.843613,1.193903 1.274589,1.78456 0.393212,0.61273 0.845922,1.182777 1.271962,1.772293 0.449657,0.563876 0.84764,1.169161 1.345028,1.692935 0.501527,0.466258 0.980991,0.960787 1.515481,1.389589 0.496524,0.434826 1.057748,0.772332 1.671063,1.01342 0.557078,0.252807 1.148777,0.403176 1.701097,0.667053 0.797867,0.366428 1.660517,0.4698 2.525245,0.537903 0.819674,0.0548 1.641365,0.04388 2.46225,0.04773 0.882653,-0.02038 1.756473,-0.0013 2.634259,0.08662 0.920386,0.07823 1.838974,0.112355 2.753641,0.242315 0.689947,0.125919 1.394265,0.109506 2.085745,0.211604 0.751127,0.255845 1.530825,0.407856 2.291343,0.628857 0,0 -3.10707,2.12793 -3.10707,2.12793 l 0,0 c -0.749636,-0.210248 -1.503045,-0.416671 -2.265957,-0.571742 -0.697108,-0.05854 -1.396336,-0.09887 -2.086406,-0.221365 -0.906342,-0.122184 -1.820802,-0.153863 -2.731285,-0.235973 -0.875019,-0.06948 -1.75078,-0.06089 -2.628111,-0.05019 -0.822401,0.0014 -1.645852,-0.01649 -2.465586,-0.08652 -0.90017,-0.09194 -1.786348,-0.239044 -2.616228,-0.620656 -0.569076,-0.220087 -1.152049,-0.404573 -1.705907,-0.662494 -0.625032,-0.28947 -1.21143,-0.647354 -1.727947,-1.106358 -0.532271,-0.456041 -1.039512,-0.942438 -1.537143,-1.435773 -0.49096,-0.548947 -0.920028,-1.149269 -1.371438,-1.730535 -0.422353,-0.591591 -0.867827,-1.165846 -1.27289,-1.769807 -0.430652,-0.597809 -0.888196,-1.176922 -1.270222,-1.808311 -0.449935,-0.69371 -0.979374,-1.331674 -1.460297,-2.003958 C 14.122217,50.427449 13.677014,49.787154 13.25521,49.130284 12.78783,48.549327 12.273113,48.015103 11.680411,47.559249 10.997327,47.019012 10.289141,46.511283 9.6102558,45.965508 8.8607133,45.400197 8.112466,44.831866 7.3286875,44.314247 6.7204799,43.910802 6.1617938,43.433891 5.5103309,43.097015 4.8511002,42.711121 4.1841332,42.335755 3.513595,41.970996 2.8144553,41.639518 2.1323597,41.272731 1.4201656,40.970084 c 0,0 3.185609,-2.096017 3.185609,-2.096017 z"
       inkscape:connector-curvature="0" />
  </g>
</svg>
